<svg xmlns="http://www.w3.org/2000/svg" id="Layer_1" data-name="Layer 1" viewBox="0 0 649 145"><defs><style>      .cls-1 {        fill: #6a1b9a;      }    </style></defs><path class="cls-1" d="m40.25,32.35c5.63,0,10.91,1.07,15.7,3.1,4.79,2.14,9.11,5,12.83,8.57,3.72,3.69,6.59,7.86,8.75,12.62,2.04,4.88,3.12,10,3.12,15.6v72.39h-15.94v-32.15h-24.45c-5.51,0-10.79-1.07-15.58-3.1-4.91-2.02-9.23-5-12.83-8.69-3.72-3.69-6.59-7.98-8.63-12.86C1.05,82.95-.03,77.83-.03,72.36s1.08-10.83,3.12-15.6c2.04-4.76,4.91-9.05,8.63-12.62,3.6-3.57,7.91-6.43,12.83-8.57,4.91-2.14,10.19-3.21,15.7-3.21Zm24.45,64.3v-24.29c0-3.33-.6-6.43-1.92-9.41-1.32-2.86-3-5.48-5.27-7.62-2.28-2.14-4.79-3.93-7.79-5.24s-6.23-1.9-9.59-1.9-6.47.6-9.47,1.9c-3,1.19-5.51,2.98-7.79,5.24s-3.96,4.76-5.15,7.62c-1.32,2.98-1.92,6.07-1.92,9.41s.6,6.55,1.92,9.53c1.2,2.98,3,5.6,5.15,7.74,2.16,2.26,4.79,3.93,7.79,5.24,2.88,1.19,6.11,1.91,9.47,1.91h24.57v-.12Z"></path><path class="cls-1" d="m166.83,31.99v40.01c0,5.48-1.08,10.72-3.12,15.48-2.16,4.88-5.03,9.17-8.75,12.86-3.72,3.69-8.03,6.55-12.83,8.69-4.79,2.14-10.07,3.1-15.7,3.1s-10.79-1.07-15.58-3.1c-4.91-2.02-9.23-5-12.83-8.69-3.72-3.69-6.59-7.98-8.63-12.86-2.16-4.88-3.12-10-3.12-15.48V31.99h16.06v40.01c0,3.33.6,6.55,1.92,9.41,1.2,2.98,3,5.6,5.15,7.74,2.16,2.26,4.79,3.93,7.79,5.12,2.88,1.31,6.11,1.9,9.47,1.9s6.47-.6,9.59-1.9c3-1.19,5.63-2.98,7.79-5.12,2.16-2.14,3.96-4.76,5.27-7.74,1.2-2.98,1.92-6.07,1.92-9.41V31.99h15.58Z"></path><path class="cls-1" d="m211.78,31.99c5.63,0,10.91,1.07,15.7,3.1,4.79,2.14,9.11,5,12.71,8.57,3.6,3.69,6.47,7.86,8.63,12.62,2.04,4.76,3.12,10,3.12,15.6v40.24h-40.28c-5.51,0-10.79-1.07-15.7-3.1-4.91-2.02-9.23-5-12.95-8.69-3.72-3.69-6.59-7.98-8.75-12.86-2.16-4.88-3.12-10-3.12-15.48s1.08-10.84,3.12-15.6c2.04-4.88,5.03-9.05,8.75-12.62,3.72-3.57,8.03-6.43,12.95-8.57,5.03-2.14,10.31-3.21,15.82-3.21Zm24.21,64.3v-24.29c0-3.33-.6-6.43-1.92-9.41-1.2-2.86-3-5.48-5.27-7.74-2.28-2.14-4.79-3.93-7.67-5.24-3-1.19-6.11-1.91-9.47-1.91s-6.59.6-9.59,1.91-5.63,2.98-7.79,5.24c-2.28,2.26-3.96,4.76-5.27,7.74-1.2,2.98-1.92,6.07-1.92,9.41s.6,6.55,1.92,9.41c1.32,2.98,3,5.6,5.27,7.74,2.16,2.26,4.79,3.93,7.79,5.12,3,1.31,6.11,1.9,9.59,1.9h24.33v.12Z"></path><path class="cls-1" d="m259.85,56.52c2.04-4.76,4.91-9.05,8.63-12.62,3.6-3.57,7.91-6.43,12.83-8.57,4.92-2.02,10.07-3.1,15.58-3.1s10.91,1.07,15.7,3.1c4.91,2.14,9.11,5,12.83,8.57,3.72,3.69,6.59,7.86,8.75,12.62,2.16,4.76,3.12,10,3.12,15.6v40.12h-15.94v-40.12c0-3.33-.6-6.43-1.92-9.41-1.32-2.86-3-5.48-5.15-7.74-2.28-2.14-4.8-3.93-7.79-5.12-3-1.31-6.23-1.91-9.59-1.91s-6.47.6-9.47,1.91c-3,1.19-5.51,2.98-7.67,5.12-2.28,2.26-3.96,4.76-5.15,7.74-1.32,2.98-1.92,6.07-1.92,9.41v40.12h-15.94v-40.12c0-5.6,1.08-10.72,3.12-15.6Z"></path><path class="cls-1" d="m391.22,96.29v15.96h-7.91c-5.51,0-10.79-1.07-15.58-3.1-4.92-2.02-9.23-5-12.95-8.69-3.72-3.69-6.59-7.98-8.75-12.86-2.16-4.88-3.12-10-3.12-15.48V-.04h15.94v48.22h32.36v15.95h-32.36v8.1c0,3.33.6,6.55,1.92,9.41,1.2,2.98,3,5.6,5.27,7.74,2.16,2.26,4.8,3.93,7.79,5.12,3,1.31,6.11,1.91,9.59,1.91h7.79v-.12Z"></path><path class="cls-1" d="m437.25,31.99c5.63,0,10.91,1.07,15.7,3.1,4.92,2.14,9.11,5,12.83,8.57,3.6,3.69,6.47,7.86,8.63,12.62,2.04,4.76,3.12,10,3.12,15.6v40.24h-40.28c-5.51,0-10.79-1.07-15.58-3.1-4.91-2.02-9.23-5-12.95-8.69-3.72-3.69-6.59-7.98-8.75-12.86-2.16-4.88-3.12-10-3.12-15.48s1.08-10.84,3.12-15.6c2.04-4.88,5.04-9.05,8.75-12.62,3.72-3.57,8.03-6.43,12.95-8.57,4.79-2.14,10.07-3.21,15.58-3.21Zm24.21,64.3v-24.29c0-3.33-.6-6.43-1.92-9.41-1.32-2.86-3-5.48-5.27-7.74-2.28-2.14-4.79-3.93-7.79-5.24-3-1.19-6.11-1.91-9.47-1.91s-6.59.6-9.47,1.91c-3,1.31-5.63,2.98-7.79,5.24-2.28,2.26-3.96,4.76-5.16,7.74-1.32,2.98-1.92,6.07-1.92,9.41s.6,6.55,1.92,9.41c1.2,2.98,3,5.6,5.16,7.74,2.16,2.26,4.79,3.93,7.79,5.12,3,1.31,6.11,1.9,9.47,1.9h24.45v.12Z"></path><path class="cls-1" d="m485.32,56.52c2.04-4.76,4.92-9.05,8.63-12.62,3.6-3.57,7.91-6.43,12.83-8.57,4.92-2.02,10.07-3.1,15.58-3.1s10.91,1.07,15.7,3.1c4.91,2.14,9.11,5,12.83,8.57,3.72,3.69,6.59,7.86,8.75,12.62,2.04,4.76,3.12,10,3.12,15.6v40.12h-15.94v-40.12c0-3.33-.6-6.43-1.92-9.41-1.2-2.86-3-5.48-5.15-7.74-2.28-2.14-4.8-3.93-7.79-5.12-3-1.31-6.23-1.91-9.59-1.91s-6.47.6-9.47,1.91c-3,1.19-5.51,2.98-7.67,5.12-2.28,2.26-3.96,4.76-5.27,7.74-1.2,2.98-1.92,6.07-1.92,9.41v40.12h-15.94v-40.12c.12-5.6,1.2-10.72,3.24-15.6Z"></path><path class="cls-1" d="m608.54,31.99c5.63,0,10.91,1.07,15.7,3.1,4.92,2.14,9.11,5,12.83,8.57,3.6,3.69,6.47,7.86,8.63,12.62,2.04,4.76,3.12,10,3.12,15.6v40.24h-40.27c-5.51,0-10.79-1.07-15.58-3.1-4.91-2.02-9.23-5-12.95-8.69-3.72-3.69-6.59-7.98-8.75-12.86-2.16-4.88-3.12-10-3.12-15.48s1.08-10.84,3.12-15.6c2.04-4.88,5.03-9.05,8.75-12.62,3.72-3.57,8.03-6.43,12.95-8.57,4.91-2.14,10.07-3.21,15.58-3.21Zm24.33,64.3v-24.29c0-3.33-.6-6.43-1.92-9.41-1.32-2.86-3-5.48-5.27-7.74-2.28-2.14-4.79-3.93-7.79-5.24-3-1.19-6.11-1.91-9.47-1.91s-6.59.6-9.47,1.91c-3,1.31-5.63,2.98-7.79,5.24-2.28,2.26-3.96,4.76-5.16,7.74-1.32,2.98-1.92,6.07-1.92,9.41s.6,6.55,1.92,9.41c1.2,2.98,3,5.6,5.16,7.74,2.16,2.26,4.79,3.93,7.79,5.12,3,1.31,6.11,1.9,9.47,1.9h24.45v.12Z"></path></svg>